<svg width="136" height="136" viewBox="0 0 136 136" fill="none" xmlns="http://www.w3.org/2000/svg">
<rect x="45.3726" y="68" width="32" height="32" transform="rotate(-45 45.3726 68)" fill="#4DAAE8"/>
<path d="M68 45.3726L83.5563 29.8162C87.4616 25.911 93.7932 25.911 97.6985 29.8162L113.255 45.3726L90.6274 68L68 45.3726Z" fill="#62BBED"/>
<path d="M90.6274 68L113.255 45.3726L128.811 60.9289C132.716 64.8342 132.716 71.1658 128.811 75.0711L113.255 90.6274L90.6274 68Z" fill="#83CBF1"/>
<path d="M68 90.6274L90.6274 68L113.255 90.6274L97.6985 106.184C93.7932 110.089 87.4616 110.089 83.5563 106.184L68 90.6274Z" fill="#AADDF6"/>
<path d="M22.7451 90.6274L45.3725 68L68 90.6274L52.4436 106.184C48.5384 110.089 42.2067 110.089 38.3015 106.184L22.7451 90.6274Z" fill="#3C82AE"/>
<path d="M7.18874 75.0711C3.2835 71.1658 3.2835 64.8342 7.18874 60.9289L22.7451 45.3726L45.3725 68L22.7451 90.6274L7.18874 75.0711Z" fill="#255877"/>
<path d="M22.7451 45.3726L38.3015 29.8162C42.2067 25.911 48.5384 25.911 52.4436 29.8162L68 45.3726L45.3725 68L22.7451 45.3726Z" fill="#132F3F"/>
</svg>
